<?xml version="1.0" encoding="UTF-8" standalone="no"?>
<!-- Created with Inkscape (http://www.inkscape.org/) -->

<svg
   width="60"
   height="60"
   viewBox="0 0 15.875 15.875"
   version="1.1"
   id="svg1"
   inkscape:version="1.3.2 (091e20e, 2023-11-25, custom)"
   sodipodi:docname="icon.svg"
   inkscape:export-filename="lader.png"
   inkscape:export-xdpi="96"
   inkscape:export-ydpi="96"
   xmlns:inkscape="http://www.inkscape.org/namespaces/inkscape"
   xmlns:sodipodi="http://sodipodi.sourceforge.net/DTD/sodipodi-0.dtd"
   xmlns:xlink="http://www.w3.org/1999/xlink"
   xmlns="http://www.w3.org/2000/svg"
   xmlns:svg="http://www.w3.org/2000/svg"
   xmlns:rdf="http://www.w3.org/1999/02/22-rdf-syntax-ns#"
   xmlns:cc="http://creativecommons.org/ns#"
   xmlns:dc="http://purl.org/dc/elements/1.1/">
  <sodipodi:namedview
     id="namedview1"
     pagecolor="#505050"
     bordercolor="#eeeeee"
     borderopacity="1"
     inkscape:showpageshadow="false"
     inkscape:pageopacity="0"
     inkscape:pagecheckerboard="true"
     inkscape:deskcolor="#505050"
     inkscape:document-units="px"
     borderlayer="true"
     labelstyle="default"
     inkscape:clip-to-page="false"
     inkscape:zoom="1.9704154"
     inkscape:cx="68.513473"
     inkscape:cy="15.225216"
     inkscape:window-width="1920"
     inkscape:window-height="991"
     inkscape:window-x="-9"
     inkscape:window-y="-9"
     inkscape:window-maximized="1"
     inkscape:current-layer="layer1" />
  <defs
     id="defs1">
    <linearGradient
       id="linearGradient5"
       inkscape:collect="always">
      <stop
         style="stop-color:#e4cb72;stop-opacity:1;"
         offset="0"
         id="stop6" />
      <stop
         style="stop-color:#9b8c4d;stop-opacity:1;"
         offset="0.66952789"
         id="stop7" />
    </linearGradient>
    <linearGradient
       id="linearGradient4"
       inkscape:collect="always">
      <stop
         style="stop-color:#ffa800;stop-opacity:0;"
         offset="0"
         id="stop4" />
      <stop
         style="stop-color:#000000;stop-opacity:1;"
         offset="1"
         id="stop5" />
    </linearGradient>
    <radialGradient
       inkscape:collect="always"
       xlink:href="#linearGradient4"
       id="radialGradient5"
       cx="7.8467517"
       cy="3.6383026"
       fx="7.8467517"
       fy="3.6383026"
       r="7.9375"
       gradientUnits="userSpaceOnUse"
       gradientTransform="matrix(-0.9999725,0.00741589,-0.01143289,-1.5416312,15.734884,9.1890325)" />
    <linearGradient
       inkscape:collect="always"
       xlink:href="#linearGradient5"
       id="linearGradient7"
       x1="7.9374995"
       y1="4.8340063"
       x2="7.9375"
       y2="7.5805092"
       gradientUnits="userSpaceOnUse" />
  </defs>
  <g
     inkscape:label="Layer 1"
     inkscape:groupmode="layer"
     id="layer1">
    <rect
       style="fill:#000000;stroke:none;stroke-width:0.529167;stroke-linecap:round;stroke-linejoin:round;stroke-miterlimit:100;fill-opacity:1"
       id="rect5"
       width="15.875"
       height="15.875"
       x="0"
       y="0" />
    <path
       id="path4"
       style="fill:#ff0000;stroke-width:0.529168;stroke-linecap:round;stroke-linejoin:round;stroke-miterlimit:100"
       d="m 9.6233828,3.2884133 c 0,0.9549864 -0.7741698,1.7291558 -1.7291563,1.7291558 -0.9549862,0 -1.7291558,-0.7741694 -1.7291558,-1.7291558 0,-0.6524002 0.6625702,-2.2219849 1.3378042,-2.88513304 C 7.3941838,0.99944416 7.4239659,1.4541067 7.6029062,1.3647775 7.7433732,1.2946556 7.8069801,0.20012818 8.2962226,0.20926084 8.1655874,0.62909432 8.2359054,0.84722945 8.3893924,1.0209716 8.5091883,1.1565765 8.7022226,0.17502011 8.9704161,0.54434387 9.2547261,1.2167717 9.6233828,2.7213859 9.6233828,3.2884133 Z"
       sodipodi:nodetypes="ssscscscs" />
    <path
       id="path3"
       style="fill:#ff6600;stroke-width:0.529168;stroke-linecap:round;stroke-linejoin:round;stroke-miterlimit:100"
       d="m 8.850767,3.6593579 c 0,0.5413925 -0.4388854,0.9802778 -0.9802779,0.9802778 -0.5413924,0 -0.9802777,-0.4388854 -0.9802777,-0.9802778 0,-0.5413925 0.710713,-1.6870303 1.2521056,-1.6870303 0.5413925,0 0.70845,1.1456378 0.70845,1.6870303 z"
       sodipodi:nodetypes="sssss" />
    <rect
       style="fill:#ffe280;fill-opacity:1;stroke-width:0.529167;stroke-linecap:round;stroke-linejoin:round;stroke-miterlimit:100;-inkscape-stroke:none"
       id="rect1"
       width="5.5204968"
       height="11.040994"
       x="5.1772518"
       y="4.8340063" />
    <path
       d="m 5.1772514,4.8340061 c -0.3048862,0 -0.5520497,0.494327 -0.5520497,1.1040994 0,0.6097724 0.2471635,1.1040994 0.5520497,1.1040994 h 0.088138 c 0.3854687,0.2963748 0.5562316,-0.1882096 0.8288339,0 0.2726023,0.1882095 0.6434718,0.3496898 0.7237705,0 0.080299,-0.3496898 0.6271592,-0.9249818 0.708584,0 0.081425,0.9249818 0.4049274,0.4762244 0.7264017,0 0.3214745,-0.4762244 0.4908125,0.4982811 0.6532845,0 0.162471,-0.4982811 0.34805,-0.3943318 0.683955,0 0.335906,0.3943318 1.107529,0 1.107529,0 0.304888,0 0.55205,-0.4943246 0.55205,-1.1040994 0,-0.6097748 -0.247162,-1.1040994 -0.55205,-1.1040994 z"
       style="fill:url(#linearGradient7);stroke-width:0.529165;stroke-linecap:round;stroke-linejoin:round;stroke-miterlimit:100"
       id="path2"
       sodipodi:nodetypes="sssczzzzzzcsss" />
    <path
       id="path1"
       style="fill:#ffd42a;stroke-width:0.529167;stroke-linecap:round;stroke-linejoin:round;stroke-miterlimit:100"
       d="m 8.3775866,3.8296609 c 0,0.2931721 -0.2376628,0.5308348 -0.5308348,0.5308348 -0.2931719,0 -0.5308348,-0.2376628 -0.5308348,-0.5308348 0,-0.2931719 0.3848616,-0.9135517 0.6780335,-0.9135517 0.2931721,0 0.3836361,0.6203798 0.3836361,0.9135517 z"
       sodipodi:nodetypes="sssss" />
    <rect
       style="fill:url(#radialGradient5);stroke:none;stroke-width:0.529167;stroke-linecap:round;stroke-linejoin:round;stroke-miterlimit:100"
       id="rect4"
       width="15.875"
       height="15.875"
       x="0"
       y="0" />
  </g>
  <metadata
     id="metadata1">
    <rdf:RDF>
      <cc:Work
         rdf:about="">
        <dc:creator>
          <cc:Agent>
            <dc:title>Patou (aka xorblo-doitus)</dc:title>
          </cc:Agent>
        </dc:creator>
      </cc:Work>
    </rdf:RDF>
  </metadata>
</svg>
