<?xml version="1.0" encoding="UTF-8" standalone="no"?>
<!-- Created with Inkscape (http://www.inkscape.org/) -->

<svg
   width="60"
   height="60"
   viewBox="0 0 15.875 15.875"
   version="1.1"
   id="svg1"
   inkscape:version="1.3.2 (091e20e, 2023-11-25, custom)"
   sodipodi:docname=".wallpaper-trick.svg"
   inkscape:export-filename="wallpaper-trick.png"
   inkscape:export-xdpi="96"
   inkscape:export-ydpi="96"
   xmlns:inkscape="http://www.inkscape.org/namespaces/inkscape"
   xmlns:sodipodi="http://sodipodi.sourceforge.net/DTD/sodipodi-0.dtd"
   xmlns="http://www.w3.org/2000/svg"
   xmlns:svg="http://www.w3.org/2000/svg"
   xmlns:rdf="http://www.w3.org/1999/02/22-rdf-syntax-ns#"
   xmlns:cc="http://creativecommons.org/ns#"
   xmlns:dc="http://purl.org/dc/elements/1.1/">
  <sodipodi:namedview
     id="namedview1"
     pagecolor="#505050"
     bordercolor="#eeeeee"
     borderopacity="1"
     inkscape:showpageshadow="false"
     inkscape:pageopacity="0"
     inkscape:pagecheckerboard="true"
     inkscape:deskcolor="#505050"
     inkscape:document-units="px"
     borderlayer="true"
     labelstyle="default"
     inkscape:clip-to-page="false"
     inkscape:zoom="5.5731763"
     inkscape:cx="14.803049"
     inkscape:cy="31.220975"
     inkscape:window-width="1920"
     inkscape:window-height="991"
     inkscape:window-x="-9"
     inkscape:window-y="-9"
     inkscape:window-maximized="1"
     inkscape:current-layer="layer1" />
  <defs
     id="defs1" />
  <g
     inkscape:label="Layer 1"
     inkscape:groupmode="layer"
     id="layer1">
    <rect
       style="fill:#800080;stroke-width:0.529167;stroke-miterlimit:100;fill-opacity:1"
       id="rect1"
       width="15.875"
       height="15.875"
       x="0"
       y="0" />
    <g
       id="g41"
       transform="translate(2.2347722)"
       style="fill:#ff00ff;stroke:#2b0000">
      <circle
         style="fill:#ff00ff;stroke:#2b0000;stroke-width:0.529167;stroke-linecap:square;stroke-linejoin:round;stroke-miterlimit:100"
         id="circle33"
         cx="-7.4103251"
         cy="0.6545499"
         r="1.9701886"
         transform="rotate(-135)" />
      <circle
         style="fill:#ff00ff;stroke:#2b0000;stroke-width:0.529167;stroke-linecap:square;stroke-linejoin:round;stroke-miterlimit:100"
         id="circle34"
         cx="-5.7027273"
         cy="7.9375"
         r="1.9701886"
         transform="rotate(-90)" />
      <circle
         style="fill:#ff00ff;stroke:#2b0000;stroke-width:0.529167;stroke-linecap:square;stroke-linejoin:round;stroke-miterlimit:100"
         id="circle35"
         cx="0.6545499"
         cy="11.879869"
         r="1.9701886"
         transform="rotate(-45)" />
      <circle
         style="fill:#ff00ff;stroke:#2b0000;stroke-width:0.529167;stroke-linecap:square;stroke-linejoin:round;stroke-miterlimit:100"
         id="circle36"
         cx="7.9375"
         cy="10.172272"
         r="1.9701886" />
      <circle
         style="fill:#ff00ff;stroke:#2b0000;stroke-width:0.529167;stroke-linecap:square;stroke-linejoin:round;stroke-miterlimit:100"
         id="circle37"
         cx="11.879869"
         cy="3.8149943"
         r="1.9701886"
         transform="rotate(45)" />
      <circle
         style="fill:#ff00ff;stroke:#2b0000;stroke-width:0.529167;stroke-linecap:square;stroke-linejoin:round;stroke-miterlimit:100"
         id="circle38"
         cx="10.172272"
         cy="-3.4679558"
         r="1.9701886"
         transform="rotate(90)" />
      <circle
         style="fill:#ff00ff;stroke:#2b0000;stroke-width:0.529167;stroke-linecap:square;stroke-linejoin:round;stroke-miterlimit:100"
         id="circle39"
         cx="3.8149943"
         cy="-7.4103251"
         r="1.9701886"
         transform="rotate(135)" />
      <path
         d="M 5.1800456,6.6755615 A 1.9701886,1.9701886 0 0 1 4.3098145,6.170166 1.9701886,1.9701886 0 0 1 3.997172,3.8059692 1.9701886,1.9701886 0 0 0 3.4680054,3.7325887 1.9701886,1.9701886 0 0 0 1.497583,5.7024943 1.9701886,1.9701886 0 0 0 3.4680054,7.6729167 1.9701886,1.9701886 0 0 0 5.1800456,6.6755615 Z"
         style="fill:#ff00ff;stroke:#2b0000;stroke-width:0.529167;stroke-linecap:square;stroke-linejoin:round;stroke-miterlimit:100"
         id="path41" />
    </g>
    <g
       id="g47"
       transform="translate(10.172272,7.9375005)"
       style="fill:#ff00ff;stroke:#2b0000">
      <circle
         style="fill:#ff00ff;stroke:#2b0000;stroke-width:0.529167;stroke-linecap:square;stroke-linejoin:round;stroke-miterlimit:100"
         id="circle41"
         cx="-7.4103251"
         cy="0.6545499"
         r="1.9701886"
         transform="rotate(-135)" />
      <circle
         style="fill:#ff00ff;stroke:#2b0000;stroke-width:0.529167;stroke-linecap:square;stroke-linejoin:round;stroke-miterlimit:100"
         id="circle42"
         cx="-5.7027273"
         cy="7.9375"
         r="1.9701886"
         transform="rotate(-90)" />
      <circle
         style="fill:#ff00ff;stroke:#2b0000;stroke-width:0.529167;stroke-linecap:square;stroke-linejoin:round;stroke-miterlimit:100"
         id="circle43"
         cx="0.6545499"
         cy="11.879869"
         r="1.9701886"
         transform="rotate(-45)" />
      <circle
         style="fill:#ff00ff;stroke:#2b0000;stroke-width:0.529167;stroke-linecap:square;stroke-linejoin:round;stroke-miterlimit:100"
         id="circle44"
         cx="7.9375"
         cy="10.172272"
         r="1.9701886" />
      <circle
         style="fill:#ff00ff;stroke:#2b0000;stroke-width:0.529167;stroke-linecap:square;stroke-linejoin:round;stroke-miterlimit:100"
         id="circle45"
         cx="11.879869"
         cy="3.8149943"
         r="1.9701886"
         transform="rotate(45)" />
      <circle
         style="fill:#ff00ff;stroke:#2b0000;stroke-width:0.529167;stroke-linecap:square;stroke-linejoin:round;stroke-miterlimit:100"
         id="circle46"
         cx="10.172272"
         cy="-3.4679558"
         r="1.9701886"
         transform="rotate(90)" />
      <circle
         style="fill:#ff00ff;stroke:#2b0000;stroke-width:0.529167;stroke-linecap:square;stroke-linejoin:round;stroke-miterlimit:100"
         id="circle47"
         cx="3.8149943"
         cy="-7.4103251"
         r="1.9701886"
         transform="rotate(135)" />
      <path
         d="M 5.1800456,6.6755615 A 1.9701886,1.9701886 0 0 1 4.3098145,6.170166 1.9701886,1.9701886 0 0 1 3.997172,3.8059692 1.9701886,1.9701886 0 0 0 3.4680054,3.7325887 1.9701886,1.9701886 0 0 0 1.497583,5.7024943 1.9701886,1.9701886 0 0 0 3.4680054,7.6729167 1.9701886,1.9701886 0 0 0 5.1800456,6.6755615 Z"
         style="fill:#ff00ff;stroke:#2b0000;stroke-width:0.529167;stroke-linecap:square;stroke-linejoin:round;stroke-miterlimit:100"
         id="path47" />
    </g>
    <g
       id="g54"
       transform="translate(10.172272,-7.9374995)"
       style="fill:#ff00ff;stroke:#2b0000">
      <circle
         style="fill:#ff00ff;stroke:#2b0000;stroke-width:0.529167;stroke-linecap:square;stroke-linejoin:round;stroke-miterlimit:100"
         id="circle48"
         cx="-7.4103251"
         cy="0.6545499"
         r="1.9701886"
         transform="rotate(-135)" />
      <circle
         style="fill:#ff00ff;stroke:#2b0000;stroke-width:0.529167;stroke-linecap:square;stroke-linejoin:round;stroke-miterlimit:100"
         id="circle49"
         cx="-5.7027273"
         cy="7.9375"
         r="1.9701886"
         transform="rotate(-90)" />
      <circle
         style="fill:#ff00ff;stroke:#2b0000;stroke-width:0.529167;stroke-linecap:square;stroke-linejoin:round;stroke-miterlimit:100"
         id="circle50"
         cx="0.6545499"
         cy="11.879869"
         r="1.9701886"
         transform="rotate(-45)" />
      <circle
         style="fill:#ff00ff;stroke:#2b0000;stroke-width:0.529167;stroke-linecap:square;stroke-linejoin:round;stroke-miterlimit:100"
         id="circle51"
         cx="7.9375"
         cy="10.172272"
         r="1.9701886" />
      <circle
         style="fill:#ff00ff;stroke:#2b0000;stroke-width:0.529167;stroke-linecap:square;stroke-linejoin:round;stroke-miterlimit:100"
         id="circle52"
         cx="11.879869"
         cy="3.8149943"
         r="1.9701886"
         transform="rotate(45)" />
      <circle
         style="fill:#ff00ff;stroke:#2b0000;stroke-width:0.529167;stroke-linecap:square;stroke-linejoin:round;stroke-miterlimit:100"
         id="circle53"
         cx="10.172272"
         cy="-3.4679558"
         r="1.9701886"
         transform="rotate(90)" />
      <circle
         style="fill:#ff00ff;stroke:#2b0000;stroke-width:0.529167;stroke-linecap:square;stroke-linejoin:round;stroke-miterlimit:100"
         id="circle54"
         cx="3.8149943"
         cy="-7.4103251"
         r="1.9701886"
         transform="rotate(135)" />
      <path
         d="M 5.1800456,6.6755615 A 1.9701886,1.9701886 0 0 1 4.3098145,6.170166 1.9701886,1.9701886 0 0 1 3.997172,3.8059692 1.9701886,1.9701886 0 0 0 3.4680054,3.7325887 1.9701886,1.9701886 0 0 0 1.497583,5.7024943 1.9701886,1.9701886 0 0 0 3.4680054,7.6729167 1.9701886,1.9701886 0 0 0 5.1800456,6.6755615 Z"
         style="fill:#ff00ff;stroke:#2b0000;stroke-width:0.529167;stroke-linecap:square;stroke-linejoin:round;stroke-miterlimit:100"
         id="path54" />
    </g>
    <g
       id="g61"
       transform="translate(-5.7027278,-7.9374995)"
       style="fill:#ff00ff;stroke:#2b0000">
      <circle
         style="fill:#ff00ff;stroke:#2b0000;stroke-width:0.529167;stroke-linecap:square;stroke-linejoin:round;stroke-miterlimit:100"
         id="circle55"
         cx="-7.4103251"
         cy="0.6545499"
         r="1.9701886"
         transform="rotate(-135)" />
      <circle
         style="fill:#ff00ff;stroke:#2b0000;stroke-width:0.529167;stroke-linecap:square;stroke-linejoin:round;stroke-miterlimit:100"
         id="circle56"
         cx="-5.7027273"
         cy="7.9375"
         r="1.9701886"
         transform="rotate(-90)" />
      <circle
         style="fill:#ff00ff;stroke:#2b0000;stroke-width:0.529167;stroke-linecap:square;stroke-linejoin:round;stroke-miterlimit:100"
         id="circle57"
         cx="0.6545499"
         cy="11.879869"
         r="1.9701886"
         transform="rotate(-45)" />
      <circle
         style="fill:#ff00ff;stroke:#2b0000;stroke-width:0.529167;stroke-linecap:square;stroke-linejoin:round;stroke-miterlimit:100"
         id="circle58"
         cx="7.9375"
         cy="10.172272"
         r="1.9701886" />
      <circle
         style="fill:#ff00ff;stroke:#2b0000;stroke-width:0.529167;stroke-linecap:square;stroke-linejoin:round;stroke-miterlimit:100"
         id="circle59"
         cx="11.879869"
         cy="3.8149943"
         r="1.9701886"
         transform="rotate(45)" />
      <circle
         style="fill:#ff00ff;stroke:#2b0000;stroke-width:0.529167;stroke-linecap:square;stroke-linejoin:round;stroke-miterlimit:100"
         id="circle60"
         cx="10.172272"
         cy="-3.4679558"
         r="1.9701886"
         transform="rotate(90)" />
      <circle
         style="fill:#ff00ff;stroke:#2b0000;stroke-width:0.529167;stroke-linecap:square;stroke-linejoin:round;stroke-miterlimit:100"
         id="circle61"
         cx="3.8149943"
         cy="-7.4103251"
         r="1.9701886"
         transform="rotate(135)" />
      <path
         d="M 5.1800456,6.6755615 A 1.9701886,1.9701886 0 0 1 4.3098145,6.170166 1.9701886,1.9701886 0 0 1 3.997172,3.8059692 1.9701886,1.9701886 0 0 0 3.4680054,3.7325887 1.9701886,1.9701886 0 0 0 1.497583,5.7024943 1.9701886,1.9701886 0 0 0 3.4680054,7.6729167 1.9701886,1.9701886 0 0 0 5.1800456,6.6755615 Z"
         style="fill:#ff00ff;stroke:#2b0000;stroke-width:0.529167;stroke-linecap:square;stroke-linejoin:round;stroke-miterlimit:100"
         id="path61" />
    </g>
    <g
       id="g68"
       transform="translate(-5.7027278,7.9375005)">
      <circle
         style="fill:#800080;stroke:#ffff00;stroke-width:0.529167;stroke-linecap:square;stroke-linejoin:round;stroke-miterlimit:100"
         id="circle62"
         cx="-7.4103251"
         cy="0.6545499"
         r="1.9701886"
         transform="rotate(-135)" />
      <circle
         style="fill:#800080;stroke:#ffff00;stroke-width:0.529167;stroke-linecap:square;stroke-linejoin:round;stroke-miterlimit:100"
         id="circle63"
         cx="-5.7027273"
         cy="7.9375"
         r="1.9701886"
         transform="rotate(-90)" />
      <circle
         style="fill:#800080;stroke:#ffff00;stroke-width:0.529167;stroke-linecap:square;stroke-linejoin:round;stroke-miterlimit:100"
         id="circle64"
         cx="0.6545499"
         cy="11.879869"
         r="1.9701886"
         transform="rotate(-45)" />
      <circle
         style="fill:#800080;stroke:#ffff00;stroke-width:0.529167;stroke-linecap:square;stroke-linejoin:round;stroke-miterlimit:100"
         id="circle65"
         cx="7.9375"
         cy="10.172272"
         r="1.9701886" />
      <circle
         style="fill:#800080;stroke:#ffff00;stroke-width:0.529167;stroke-linecap:square;stroke-linejoin:round;stroke-miterlimit:100"
         id="circle66"
         cx="11.879869"
         cy="3.8149943"
         r="1.9701886"
         transform="rotate(45)" />
      <circle
         style="fill:#800080;stroke:#ffff00;stroke-width:0.529167;stroke-linecap:square;stroke-linejoin:round;stroke-miterlimit:100"
         id="circle67"
         cx="10.172272"
         cy="-3.4679558"
         r="1.9701886"
         transform="rotate(90)" />
      <circle
         style="fill:#800080;stroke:#ffff00;stroke-width:0.529167;stroke-linecap:square;stroke-linejoin:round;stroke-miterlimit:100"
         id="circle68"
         cx="3.8149943"
         cy="-7.4103251"
         r="1.9701886"
         transform="rotate(135)" />
      <path
         d="M 5.1800456,6.6755615 A 1.9701886,1.9701886 0 0 1 4.3098145,6.170166 1.9701886,1.9701886 0 0 1 3.997172,3.8059692 1.9701886,1.9701886 0 0 0 3.4680054,3.7325887 1.9701886,1.9701886 0 0 0 1.497583,5.7024943 1.9701886,1.9701886 0 0 0 3.4680054,7.6729167 1.9701886,1.9701886 0 0 0 5.1800456,6.6755615 Z"
         style="fill:#800080;stroke:#ffff00;stroke-width:0.529167;stroke-linecap:square;stroke-linejoin:round;stroke-miterlimit:100"
         id="path68" />
    </g>
    <g
       id="g75"
       transform="translate(-5.7027278,7.9375005)"
       style="fill:#ff00ff;stroke:#2b0000">
      <circle
         style="fill:#ff00ff;stroke:#2b0000;stroke-width:0.529167;stroke-linecap:square;stroke-linejoin:round;stroke-miterlimit:100"
         id="circle69"
         cx="-7.4103251"
         cy="0.6545499"
         r="1.9701886"
         transform="rotate(-135)" />
      <circle
         style="fill:#ff00ff;stroke:#2b0000;stroke-width:0.529167;stroke-linecap:square;stroke-linejoin:round;stroke-miterlimit:100"
         id="circle70"
         cx="-5.7027273"
         cy="7.9375"
         r="1.9701886"
         transform="rotate(-90)" />
      <circle
         style="fill:#ff00ff;stroke:#2b0000;stroke-width:0.529167;stroke-linecap:square;stroke-linejoin:round;stroke-miterlimit:100"
         id="circle71"
         cx="0.6545499"
         cy="11.879869"
         r="1.9701886"
         transform="rotate(-45)" />
      <circle
         style="fill:#ff00ff;stroke:#2b0000;stroke-width:0.529167;stroke-linecap:square;stroke-linejoin:round;stroke-miterlimit:100"
         id="circle72"
         cx="7.9375"
         cy="10.172272"
         r="1.9701886" />
      <circle
         style="fill:#ff00ff;stroke:#2b0000;stroke-width:0.529167;stroke-linecap:square;stroke-linejoin:round;stroke-miterlimit:100"
         id="circle73"
         cx="11.879869"
         cy="3.8149943"
         r="1.9701886"
         transform="rotate(45)" />
      <circle
         style="fill:#ff00ff;stroke:#2b0000;stroke-width:0.529167;stroke-linecap:square;stroke-linejoin:round;stroke-miterlimit:100"
         id="circle74"
         cx="10.172272"
         cy="-3.4679558"
         r="1.9701886"
         transform="rotate(90)" />
      <circle
         style="fill:#ff00ff;stroke:#2b0000;stroke-width:0.529167;stroke-linecap:square;stroke-linejoin:round;stroke-miterlimit:100"
         id="circle75"
         cx="3.8149943"
         cy="-7.4103251"
         r="1.9701886"
         transform="rotate(135)" />
      <path
         d="M 5.1800456,6.6755615 A 1.9701886,1.9701886 0 0 1 4.3098145,6.170166 1.9701886,1.9701886 0 0 1 3.997172,3.8059692 1.9701886,1.9701886 0 0 0 3.4680054,3.7325887 1.9701886,1.9701886 0 0 0 1.497583,5.7024943 1.9701886,1.9701886 0 0 0 3.4680054,7.6729167 1.9701886,1.9701886 0 0 0 5.1800456,6.6755615 Z"
         style="fill:#ff00ff;stroke:#2b0000;stroke-width:0.529167;stroke-linecap:square;stroke-linejoin:round;stroke-miterlimit:100"
         id="path75" />
    </g>
  </g>
  <metadata
     id="metadata1">
    <rdf:RDF>
      <cc:Work
         rdf:about="">
        <dc:creator>
          <cc:Agent>
            <dc:title>Patou (aka xorblo-doitus)</dc:title>
          </cc:Agent>
        </dc:creator>
      </cc:Work>
    </rdf:RDF>
  </metadata>
</svg>
