<svg width="64" height="64" version="1.1" viewBox="0 0 16.933 16.933" xmlns="http://www.w3.org/2000/svg">
 <path d="m8.4667 0a8.4667 8.4667 0 0 0-8.4667 8.4667 8.4667 8.4667 0 0 0 8.4667 8.4667 8.4667 8.4667 0 0 0 8.4667-8.4667 8.4667 8.4667 0 0 0-8.4667-8.4667zm-3.6844 3.7241a1.0583 1.0583 0 0 1 0.74853 0.30967l2.9359 2.9361 2.9361-2.9361a1.0583 1.0583 0 0 1 0.74853-0.30967 1.0583 1.0583 0 0 1 0.74815 0.30967 1.0583 1.0583 0 0 1 0 1.4971l-2.9359 2.9359 2.9359 2.9361a1.0583 1.0583 0 0 1 0 1.4967 1.0583 1.0583 0 0 1-1.4967 0l-2.9361-2.9359-2.9359 2.9359a1.0583 1.0583 0 0 1-1.4971 0 1.0583 1.0583 0 0 1 0-1.4967l2.9361-2.9361-2.9361-2.9359a1.0583 1.0583 0 0 1 0-1.4971 1.0583 1.0583 0 0 1 0.74853-0.30967z" fill="#fff" stroke-linecap="round" stroke-width="4.2333"/>
</svg>
