<svg width="64" height="64" version="1.1" viewBox="0 0 16.933 16.933" xmlns="http://www.w3.org/2000/svg">
 <path d="m8.4667 0a8.4667 8.4667 0 0 0-8.4667 8.4667 8.4667 8.4667 0 0 0 8.4667 8.4667 8.4667 8.4667 0 0 0 8.4667-8.4667 8.4667 8.4667 0 0 0-8.4667-8.4667zm0 1.5741a1.5875 1.5875 0 0 1 1.5875 1.5875 1.5875 1.5875 0 0 1-1.5875 1.5875 1.5875 1.5875 0 0 1-1.5875-1.5875 1.5875 1.5875 0 0 1 1.5875-1.5875zm0 4.7485c0.87947 0 1.5875 0.70803 1.5875 1.5875v5.8208c0 0.87947-0.70803 1.5875-1.5875 1.5875s-1.5875-0.70803-1.5875-1.5875v-5.8208c0-0.87947 0.70803-1.5875 1.5875-1.5875z" fill="#fff" stroke-linecap="round" stroke-linejoin="round" stroke-width="4.2333" style="paint-order:stroke fill markers"/>
</svg>
