<svg width="64" height="64" version="1.1" viewBox="0 0 16.933 16.933" xmlns="http://www.w3.org/2000/svg">
 <path d="m8.4794 0.0010335c-0.71636-5.0573e-5 -1.3785 0.42455-1.7373 1.1141l-5.8052 11.183-0.66816 1.2867c-0.7726 1.4885 0.19355 3.349 1.7389 3.3486h12.945c1.5449-4.25e-4 2.5102-1.8605 1.7378-3.3486l-0.68056-1.3115-5.7913-11.158c-0.35922-0.69028-1.0223-1.115-1.7394-1.1141zm-0.012919 2.3869c0.87946 0 1.5875 0.70801 1.5875 1.5875v5.8207c0 0.18616-0.03311 0.36397-0.091466 0.52967-0.21734 0.61714-0.80269 1.0583-1.496 1.0583-0.68202 0-1.2591-0.427-1.4846-1.0283-0.065304-0.17409-0.10283-0.3622-0.10283-0.55964v-5.8207c0-0.87946 0.70801-1.5875 1.5875-1.5875zm0 10.57c0.32282 7.44e-4 0.63774 0.09989 0.90277 0.28422 0.42804 0.29594 0.68387 0.78287 0.6847 1.3033-1.73e-4 0.33385-0.10559 0.65915-0.30127 0.92964-0.29834 0.41295-0.77676 0.65763-1.2862 0.65783-0.50926-3.6e-4 -0.98745-0.24503-1.2857-0.65783-0.19586-0.27043-0.30146-0.59574-0.30178-0.92964 0.0023572-0.52162 0.26083-1.0088 0.69142-1.3033 0.26314-0.18303 0.57552-0.28211 0.89605-0.28422z" fill="#fff" stroke-linecap="round" stroke-linejoin="round" style="paint-order:stroke fill markers"/>
</svg>
