<?xml version="1.0" encoding="UTF-8" standalone="no"?>
<!-- Created with Inkscape (http://www.inkscape.org/) -->

<svg
   width="60"
   height="60"
   viewBox="0 0 15.875 15.875"
   version="1.1"
   id="svg1"
   inkscape:version="1.3.2 (091e20e, 2023-11-25, custom)"
   sodipodi:docname=".ghost.svg"
   inkscape:export-filename="ghost.png"
   inkscape:export-xdpi="96"
   inkscape:export-ydpi="96"
   xmlns:inkscape="http://www.inkscape.org/namespaces/inkscape"
   xmlns:sodipodi="http://sodipodi.sourceforge.net/DTD/sodipodi-0.dtd"
   xmlns="http://www.w3.org/2000/svg"
   xmlns:svg="http://www.w3.org/2000/svg"
   xmlns:rdf="http://www.w3.org/1999/02/22-rdf-syntax-ns#"
   xmlns:cc="http://creativecommons.org/ns#"
   xmlns:dc="http://purl.org/dc/elements/1.1/">
  <sodipodi:namedview
     id="namedview1"
     pagecolor="#505050"
     bordercolor="#eeeeee"
     borderopacity="1"
     inkscape:showpageshadow="false"
     inkscape:pageopacity="0"
     inkscape:pagecheckerboard="true"
     inkscape:deskcolor="#505050"
     inkscape:document-units="px"
     borderlayer="true"
     labelstyle="default"
     inkscape:clip-to-page="false"
     inkscape:zoom="7.8816615"
     inkscape:cx="38.760863"
     inkscape:cy="36.540519"
     inkscape:window-width="1920"
     inkscape:window-height="991"
     inkscape:window-x="-9"
     inkscape:window-y="-9"
     inkscape:window-maximized="1"
     inkscape:current-layer="layer1" />
  <defs
     id="defs1" />
  <g
     inkscape:label="Layer 1"
     inkscape:groupmode="layer"
     id="layer1">
    <path
       d="M 1.5875,0 C 0.7080295,0 0,0.7080295 0,1.5875 V 14.287499 C 0,15.16697 0.7080295,15.875 1.5875,15.875 c 0.748355,0 1.446317,-1.022453 2.542775,-1.085978 1.096458,-0.06352 1.222564,1.204543 2.079899,1.085978 0.857336,-0.118566 1.615095,-0.856882 2.744689,-0.72992 1.129594,0.126963 1.93664,0.824085 2.63483,0.72992 0.698191,-0.09417 0.764813,-0.754471 1.28181,-0.765525 0.516996,-0.01104 1.415996,0.765525 1.415996,0.765525 0.879471,0 1.587501,-0.70803 1.587501,-1.587501 v -0.248046 -2.16731 -2.1533569 c -0.402535,-0.05026 -0.817374,-0.07579 -1.234034,-0.07596 -0.929235,10e-4 -1.837834,0.128124 -2.615344,0.3658689 -0.01983,-0.06676 -0.0338,-0.1340189 -0.04186,-0.2015379 -2.78e-4,-1.147413 1.668516,-2.077606 3.726905,-2.077393 0.05481,3.6e-4 0.109602,0.0014 0.164331,0.0031 V 1.5875 C 15.874998,0.7080295 15.166968,0 14.287497,0 Z m 10.368359,3.1750001 c 0.903678,5.25e-4 1.635889,0.733431 1.635559,1.637109 -5.5e-4,0.903073 -0.732486,1.635033 -1.635559,1.635559 -0.903678,3.3e-4 -1.636583,-0.731881 -1.637109,-1.635559 -3.3e-4,-0.904283 0.732826,-1.637439 1.637109,-1.637109 z"
       style="fill:#ffffff;stroke-width:0.529165;stroke-linecap:round;stroke-linejoin:round;stroke-miterlimit:100"
       id="path4"
       sodipodi:nodetypes="sssszzzzzcsccccccccsssccccc" />
    <rect
       style="fill:#ffffff;fill-opacity:1;stroke:none;stroke-width:0.529167;stroke-linecap:round;stroke-linejoin:round;stroke-miterlimit:100;-inkscape-stroke:none"
       id="rect1-8"
       width="5.2916665"
       height="5.2916665"
       x="32.415813"
       y="-12.13587"
       rx="0.52916664"
       ry="0.52916664" />
    <circle
       style="fill:#ff0000;fill-opacity:1;stroke:none;stroke-width:0.529167;stroke-linecap:round;stroke-linejoin:round;stroke-miterlimit:100;-inkscape-stroke:none"
       id="path1-6"
       cx="36.400898"
       cy="-10.532032"
       r="0.54550415" />
    <ellipse
       style="fill:#ff0000;fill-opacity:1;stroke:none;stroke-width:0.529167;stroke-linecap:round;stroke-linejoin:round;stroke-miterlimit:100;-inkscape-stroke:none"
       id="path2-6"
       cx="37.652653"
       cy="-8.8670406"
       rx="1.242071"
       ry="0.69237071" />
    <ellipse
       style="fill:#ffffff;fill-opacity:1;stroke:none;stroke-width:0.529167;stroke-linecap:round;stroke-linejoin:round;stroke-miterlimit:100;-inkscape-stroke:none"
       id="path3-8"
       cx="37.295975"
       cy="-8.1746702"
       rx="1.5987468"
       ry="0.74692106" />
  </g>
  <metadata
     id="metadata1">
    <rdf:RDF>
      <cc:Work
         rdf:about="">
        <dc:creator>
          <cc:Agent>
            <dc:title>Patou (aka xorblo-doitus)</dc:title>
          </cc:Agent>
        </dc:creator>
      </cc:Work>
    </rdf:RDF>
  </metadata>
</svg>
