<?xml version="1.0" encoding="UTF-8" standalone="no"?>
<!-- Created with Inkscape (http://www.inkscape.org/) -->

<svg
   width="20"
   height="20"
   viewBox="0 0 5.2916666 5.2916666"
   version="1.1"
   id="svg1"
   inkscape:version="1.3.2 (091e20e, 2023-11-25, custom)"
   sodipodi:docname=".ghost.svg"
   inkscape:export-filename="ghost.png"
   inkscape:export-xdpi="96"
   inkscape:export-ydpi="96"
   xmlns:inkscape="http://www.inkscape.org/namespaces/inkscape"
   xmlns:sodipodi="http://sodipodi.sourceforge.net/DTD/sodipodi-0.dtd"
   xmlns="http://www.w3.org/2000/svg"
   xmlns:svg="http://www.w3.org/2000/svg"
   xmlns:rdf="http://www.w3.org/1999/02/22-rdf-syntax-ns#"
   xmlns:cc="http://creativecommons.org/ns#"
   xmlns:dc="http://purl.org/dc/elements/1.1/">
  <sodipodi:namedview
     id="namedview1"
     pagecolor="#505050"
     bordercolor="#eeeeee"
     borderopacity="1"
     inkscape:showpageshadow="false"
     inkscape:pageopacity="0"
     inkscape:pagecheckerboard="true"
     inkscape:deskcolor="#505050"
     inkscape:document-units="px"
     borderlayer="true"
     labelstyle="default"
     inkscape:clip-to-page="false"
     inkscape:zoom="15.763323"
     inkscape:cx="5.1067913"
     inkscape:cy="9.325445"
     inkscape:window-width="1920"
     inkscape:window-height="991"
     inkscape:window-x="-9"
     inkscape:window-y="-9"
     inkscape:window-maximized="1"
     inkscape:current-layer="layer1" />
  <defs
     id="defs1" />
  <g
     inkscape:label="Layer 1"
     inkscape:groupmode="layer"
     id="layer1">
    <path
       d="M 0.52916666,0 C 0.23600981,0 0,0.23600981 0,0.52916666 V 4.7624999 c 0,0.2931569 0.23600981,0.5291667 0.52916666,0.5291667 0.24945157,0 0.48210574,-0.3408175 0.84759164,-0.3619925 0.3654859,-0.021175 0.4075212,0.4015143 0.6932997,0.3619925 0.2857785,-0.039522 0.5383649,-0.2856272 0.9148964,-0.2433064 0.3765315,0.042321 0.6455467,0.274695 0.8782768,0.2433064 0.2327301,-0.031389 0.2549377,-0.2514903 0.4272698,-0.255175 0.1723321,-0.00368 0.4719989,0.255175 0.4719989,0.255175 0.2931569,0 0.5291667,-0.2360098 0.5291667,-0.5291667 V 4.6798176 3.9573811 3.2395955 C 5.1574883,3.2228435 5.0192089,3.2143313 4.8803222,3.214274 4.5705772,3.2146131 4.2677109,3.256982 4.0085408,3.3362304 4.0019296,3.3139775 3.9972732,3.2915574 3.9945882,3.2690511 3.9944955,2.8865801 4.55076,2.5765159 5.2368896,2.5765869 c 0.01827,1.199e-4 0.036534,4.645e-4 0.054777,0.00103 V 0.52916666 C 5.2916666,0.23600981 5.0556568,0 4.7624999,0 Z M 3.9852864,1.0583333 C 4.2865124,1.0585088 4.5305827,1.3028104 4.5304728,1.6040364 4.5302974,1.9050607 4.2863107,2.1490475 3.9852864,2.1492228 3.6840604,2.1493327 3.4397588,1.9052625 3.4395833,1.6040364 3.4394733,1.3026086 3.6838586,1.0582234 3.9852864,1.0583333 Z"
       style="fill:#ffffff;stroke-width:0.529167;stroke-linecap:round;stroke-linejoin:round;stroke-miterlimit:100"
       id="path4"
       sodipodi:nodetypes="sssszzzzzcsccccccccsssccccc" />
    <rect
       style="fill:#ffffff;fill-opacity:1;stroke:none;stroke-width:0.529167;stroke-linecap:round;stroke-linejoin:round;stroke-miterlimit:100;-inkscape-stroke:none"
       id="rect1-8"
       width="5.2916665"
       height="5.2916665"
       x="5.2916665"
       y="-5.5562501"
       rx="0.52916664"
       ry="0.52916664" />
    <circle
       style="fill:#ff0000;fill-opacity:1;stroke:none;stroke-width:0.529167;stroke-linecap:round;stroke-linejoin:round;stroke-miterlimit:100;-inkscape-stroke:none"
       id="path1-6"
       cx="9.2767544"
       cy="-3.9524124"
       r="0.54550415" />
    <ellipse
       style="fill:#ff0000;fill-opacity:1;stroke:none;stroke-width:0.529167;stroke-linecap:round;stroke-linejoin:round;stroke-miterlimit:100;-inkscape-stroke:none"
       id="path2-6"
       cx="10.528507"
       cy="-2.287421"
       rx="1.242071"
       ry="0.69237071" />
    <ellipse
       style="fill:#ffffff;fill-opacity:1;stroke:none;stroke-width:0.529167;stroke-linecap:round;stroke-linejoin:round;stroke-miterlimit:100;-inkscape-stroke:none"
       id="path3-8"
       cx="10.171831"
       cy="-1.5950503"
       rx="1.5987468"
       ry="0.74692106" />
  </g>
  <metadata
     id="metadata1">
    <rdf:RDF>
      <cc:Work
         rdf:about="">
        <dc:creator>
          <cc:Agent>
            <dc:title>Patou (aka xorblo-doitus)</dc:title>
          </cc:Agent>
        </dc:creator>
      </cc:Work>
    </rdf:RDF>
  </metadata>
</svg>
